<?xml version="1.0" encoding="UTF-8" standalone="no"?>
<svg
   xmlns:dc="http://purl.org/dc/elements/1.1/"
   xmlns:cc="http://creativecommons.org/ns#"
   xmlns:rdf="http://www.w3.org/1999/02/22-rdf-syntax-ns#"
   xmlns:svg="http://www.w3.org/2000/svg"
   xmlns="http://www.w3.org/2000/svg"
   xmlns:sodipodi="http://sodipodi.sourceforge.net/DTD/sodipodi-0.dtd"
   xmlns:inkscape="http://www.inkscape.org/namespaces/inkscape"
   version="1.1"
   width="259.49237"
   height="30"
   id="svg3767"
   sodipodi:docname="logo.svg"
   inkscape:version="0.92.3 (2405546, 2018-03-11)"
   viewBox="0 0 495.84061 57.3243">
  <metadata
     id="metadata3773">
    <rdf:RDF>
      <cc:Work
         rdf:about="">
        <dc:format>image/svg+xml</dc:format>
        <dc:type
           rdf:resource="http://purl.org/dc/dcmitype/StillImage" />
        <dc:title></dc:title>
      </cc:Work>
    </rdf:RDF>
  </metadata>
  <defs
     id="defs3771" />
  <sodipodi:namedview
     pagecolor="#ffffff"
     bordercolor="#666666"
     borderopacity="1"
     objecttolerance="10"
     gridtolerance="10"
     guidetolerance="10"
     inkscape:pageopacity="0"
     inkscape:pageshadow="2"
     inkscape:window-width="1920"
     inkscape:window-height="1017"
     id="namedview3769"
     showgrid="false"
     inkscape:zoom="8.705"
     inkscape:cx="-39.577651"
     inkscape:cy="-12.495311"
     inkscape:window-x="0"
     inkscape:window-y="30"
     inkscape:window-maximized="1"
     inkscape:current-layer="svg3767"
     fit-margin-top="0"
     fit-margin-left="0"
     fit-margin-right="0"
     fit-margin-bottom="0"
     viewbox-width="196.32"
     scale-x="1.91081" />
  <path
     d="M 21.35451,0 Q 12.26058,0 6.08969,6.576865 0,13.072538 0,22.410063 V 57.161915 H 5.11533 V 31.666397 H 37.7561 v 25.495518 h 5.11533 V 22.410067 q 0,-9.337529 -6.08969,-15.833202 Q 30.44846,0 21.35451,0 Z M 37.7561,26.63225 H 5.11533 v -4.222188 q 0,-6.982847 4.70937,-12.098187 4.79056,-5.196536 11.52981,-5.196536 6.73927,0 11.69222,5.196536 4.70937,5.11534 4.70937,12.098187 z m 18.41847,30.529665 h 5.03415 V 22.734848 q 0,-6.820453 5.19654,-12.179389 5.19653,-5.196532 12.01699,-5.196532 6.82046,0 12.17939,5.196532 5.19653,5.358936 5.19653,12.179389 v 34.427067 h 5.03415 V 22.734848 q 0,-9.256334 -6.57686,-15.8332 -6.57688,-6.576863 -15.83321,-6.576863 -9.09394,0 -15.67081,6.576863 -6.57687,6.576866 -6.57687,15.8332 z m 98.55885,-56.83713 h -44.00819 v 4.952944 h 19.97419 v 52.04657 h 5.03415 V 5.277729 h 18.99985 z m 54.95663,-0.162377 h -5.11534 V 26.145095 H 170.31003 V 0.162404 h -5.11534 v 56.999517 h 5.11534 V 31.260422 h 34.26467 v 25.901499 h 5.11535 z m 57.6361,0.08119 h -5.11529 v 34.670647 q 0,7.470019 -5.19653,12.504165 -5.11538,4.87176 -12.17945,4.87176 -7.71361,0 -12.42296,-4.87176 -4.79056,-4.952975 -4.79056,-12.50419 V 0.243585 h -5.19655 v 34.67065 q 0,9.25633 6.3333,15.752002 6.41446,6.658062 16.07677,6.658062 9.01275,0 15.83324,-6.658062 6.65803,-6.495672 6.65803,-15.752002 z m 37.01236,28.418542 h 6.08969 q 6.17092,0 10.23069,-4.059795 4.05982,-4.059797 4.05982,-10.230688 0,-5.440123 -4.05982,-9.743505 Q 316.3555,0.162377 310.4282,0.162377 h -25.41428 -5.03419 v 56.999529 h 5.03419 v -28.49976 h 13.23491 l 17.2947,28.499766 h 6.08973 z m -19.3246,-5.034141 V 5.277729 h 25.41428 q 3.73503,0 6.57684,2.679465 2.67951,2.679463 2.67951,6.414473 0,3.897404 -2.67951,6.576872 -2.84181,2.679463 -6.57684,2.679463 z m 51.87113,33.615105 h 5.11534 V 0.162384 h -5.11534 z m 62.5891,-56.999522 h -5.11536 v 34.67065 q 0,7.470022 -5.19655,12.504172 -5.11535,4.871748 -12.1794,4.871748 -7.71359,0 -12.42294,-4.871748 -4.79057,-4.952953 -4.79057,-12.504172 V 0.243585 h -5.19653 v 34.67065 q 0,9.25633 6.33325,15.752002 6.41451,6.658062 16.07679,6.658062 9.01281,0 15.83323,-6.658062 6.65808,-6.495672 6.65808,-15.752002 z m 12.40993,56.755934 h 5.03419 V 22.653651 q 0,-6.820455 5.19647,-12.016994 5.19663,-5.196534 12.01707,-5.196534 6.65802,0 12.01698,5.196534 5.11533,5.115345 5.11533,12.016995 v 34.345867 h 5.19654 V 22.653651 q 0,-6.982848 5.19651,-12.016994 5.19657,-5.196534 11.93583,-5.196534 6.82044,0 12.01701,5.196534 5.19651,5.196539 5.19651,12.016995 v 34.345867 h 5.03412 V 22.653651 q 0,-9.256333 -6.49565,-15.752003 -6.49565,-6.495672 -15.75199,-6.495672 -6.08969,0 -11.44861,3.329034 -5.44018,3.410228 -7.79482,8.687959 -3.1667,-5.440125 -8.52556,-8.687959 -5.60254,-3.329034 -11.6922,-3.329034 -9.17516,0 -15.67085,6.495672 -6.57689,6.576866 -6.57689,15.752003 z"
     id="path3763"
     inkscape:connector-curvature="0"
     style="fill:#2486b9;fill-opacity:1;stroke-width:3.00725579" />
  <path
     d=""
     id="path3765"
     inkscape:connector-curvature="0"
     style="fill:#0071c2" />
</svg>
